<?xml version="1.0" encoding="UTF-8"?>
<!DOCTYPE svg PUBLIC "-//W3C//DTD SVG 1.1//EN" "http://www.w3.org/Graphics/SVG/1.1/DTD/svg11.dtd">
<svg xmlns="http://www.w3.org/2000/svg" version="1.1" width="288px" height="288px" style="shape-rendering:geometricPrecision; text-rendering:geometricPrecision; image-rendering:optimizeQuality; fill-rule:evenodd; clip-rule:evenodd" xmlns:xlink="http://www.w3.org/1999/xlink">
<g><path style="opacity:0.995" fill="#040404" d="M 108.5,36.5 C 111.167,35.8333 112.833,34.1667 113.5,31.5C 115.5,28.8333 117.833,26.5 120.5,24.5C 123.5,23.5 125.5,21.5 126.5,18.5C 128.833,15.5 131.5,12.8333 134.5,10.5C 137.167,9.83333 138.833,8.16667 139.5,5.5C 140.562,3.24347 142.228,2.0768 144.5,2C 191.5,49 238.5,96 285.5,143C 258.169,143.5 230.835,143.667 203.5,143.5C 203.667,171.169 203.5,198.835 203,226.5C 183.32,246.347 163.486,266.014 143.5,285.5C 96.1803,238.68 49.0136,191.68 2,144.5C 1.33333,143.833 1.33333,143.167 2,142.5C 37.368,106.965 72.868,71.6319 108.5,36.5 Z M 144.5,143.5 C 143.833,163.167 143.167,182.833 142.5,202.5C 123.188,182.854 103.855,163.187 84.5,143.5C 103.887,123.446 123.554,103.779 143.5,84.5C 163.32,103.819 182.986,123.319 202.5,143C 183.17,143.5 163.836,143.667 144.5,143.5 Z"/></g>
<g><path style="opacity:0.62" fill="#434343" d="M 139.5,5.5 C 138.833,8.16667 137.167,9.83333 134.5,10.5C 135.833,8.5 137.5,6.83333 139.5,5.5 Z"/></g>
<g><path style="opacity:0.62" fill="#434343" d="M 126.5,18.5 C 125.5,21.5 123.5,23.5 120.5,24.5C 122.167,22.1667 124.167,20.1667 126.5,18.5 Z"/></g>
<g><path style="opacity:0.62" fill="#454545" d="M 113.5,31.5 C 112.833,34.1667 111.167,35.8333 108.5,36.5C 109.833,34.5 111.5,32.8333 113.5,31.5 Z"/></g>
<g><path style="opacity:0.702" fill="#2c2c2c" d="M 144.5,143.5 C 144.833,163.511 144.5,183.511 143.5,203.5C 142.893,203.376 142.56,203.043 142.5,202.5C 143.167,182.833 143.833,163.167 144.5,143.5 Z"/></g>
</svg>
